<svg xmlns="http://www.w3.org/2000/svg" xmlns:xlink="http://www.w3.org/1999/xlink" width="1920" zoomAndPan="magnify" viewBox="0 0 1440 809.999993" height="1080" preserveAspectRatio="xMidYMid meet" version="1.0"><rect x="-144" width="1728" fill="#ffffff" y="-80.999999" height="971.999992" fill-opacity="1"/><rect x="-144" width="1728" fill="#ffffff" y="-80.999999" height="971.999992" fill-opacity="1"/><rect x="-144" width="1728" fill="#efebd2" y="-80.999999" height="971.999992" fill-opacity="1"/><path fill="#000000" d="M 533.921875 339.097656 C 533.039062 346.484375 532.160156 353.972656 533.167969 361.347656 C 533.496094 363.710938 534.027344 366.09375 535.234375 368.152344 C 536.441406 370.210938 538.40625 371.921875 540.75 372.359375 C 542.921875 370.300781 545.921875 367.851562 547.230469 365.160156 C 548.910156 361.703125 548.90625 357.675781 548.5 353.855469 C 548.078125 349.898438 547.207031 345.859375 544.914062 342.605469 C 542.621094 339.359375 537.839844 338.433594 533.921875 339.097656 Z M 533.921875 339.097656 " fill-opacity="1" fill-rule="nonzero"/><path fill="#007785" d="M 648.683594 776.453125 C 648.484375 747.367188 645.59375 715.015625 644.988281 696.941406 C 642.035156 609.011719 637.292969 599.753906 637.292969 599.753906 L 549.28125 608.152344 L 478.675781 616.773438 L 464.789062 809.773438 L 558.242188 810.050781 L 564.421875 755.757812 L 565.375 810.070312 L 648.589844 810.316406 Z M 648.683594 776.453125 " fill-opacity="1" fill-rule="nonzero"/><path fill="#000000" d="M 564.421875 756.398438 C 564.171875 756.398438 563.9375 756.253906 563.835938 756.011719 C 563.695312 755.6875 563.84375 755.308594 564.167969 755.171875 L 601.65625 739.027344 C 601.980469 738.886719 602.355469 739.035156 602.496094 739.363281 C 602.636719 739.6875 602.488281 740.0625 602.164062 740.203125 L 564.675781 756.347656 C 564.589844 756.382812 564.503906 756.398438 564.421875 756.398438 Z M 564.421875 756.398438 " fill-opacity="1" fill-rule="nonzero"/><path fill="#ffffff" d="M 735.730469 754.5 L 1102.511719 754.5 L 1102.511719 774.328125 L 735.730469 774.328125 Z M 735.730469 754.5 " fill-opacity="1" fill-rule="nonzero"/><path fill="#000000" d="M 735.730469 754.5 L 1102.511719 754.5 L 1102.511719 774.328125 L 735.730469 774.328125 Z M 735.730469 754.5 " fill-opacity="0.2667" fill-rule="nonzero"/><path fill="#000000" d="M 928.40625 476.890625 L 906.207031 601.902344 L 1011.226562 611.984375 L 1007.449219 497.839844 Z M 928.40625 476.890625 " fill-opacity="1" fill-rule="nonzero"/><path fill="#f8b498" d="M 965.648438 520.890625 L 970.859375 598.445312 L 932.953125 599.21875 L 933.777344 548.089844 Z M 965.648438 520.890625 " fill-opacity="1" fill-rule="nonzero"/><path fill="#ff3e4d" d="M 920.789062 590.867188 L 916.324219 591.40625 C 905.507812 592.71875 892.484375 602.910156 888.613281 613.09375 L 859.445312 681.558594 L 871.636719 630.726562 L 835.3125 623.402344 L 820.722656 693.117188 C 817.765625 703.539062 817.246094 714.5 819.207031 725.15625 C 821.316406 736.632812 831.210938 745.035156 842.875 745.246094 C 856.082031 745.488281 868.429688 738.722656 875.339844 727.460938 L 898.738281 689.3125 L 925.027344 753.132812 L 1060.265625 763.03125 C 1075.296875 764.132812 1088.886719 754.09375 1092.261719 739.394531 C 1095.195312 726.605469 1093.382812 713.183594 1087.15625 701.632812 L 1046.101562 619.382812 C 1044.238281 615.652344 1041.765625 612.058594 1038.839844 608.742188 C 1028.089844 596.539062 1012.308594 589.964844 996.050781 589.902344 L 975.160156 589.820312 Z M 920.789062 590.867188 " fill-opacity="1" fill-rule="nonzero"/><path fill="#000000" d="M 913.167969 487.09375 C 913.167969 487.09375 886.503906 466.230469 913.785156 449.121094 C 932.417969 437.441406 964.203125 452.929688 964.203125 452.929688 Z M 913.167969 487.09375 " fill-opacity="1" fill-rule="nonzero"/><path fill="#000000" d="M 965.699219 453.242188 C 967.347656 453.582031 968.976562 453.988281 970.589844 454.464844 C 972.203125 454.9375 973.789062 455.476562 975.347656 456.078125 C 976.90625 456.683594 978.433594 457.347656 979.929688 458.074219 C 981.421875 458.800781 982.875 459.585938 984.289062 460.429688 C 985.703125 461.273438 987.070312 462.171875 988.386719 463.125 C 989.707031 464.074219 990.972656 465.078125 992.183594 466.128906 C 993.394531 467.179688 994.546875 468.277344 995.640625 469.417969 C 996.734375 470.558594 997.761719 471.738281 998.722656 472.957031 C 999.6875 474.175781 1000.582031 475.429688 1001.40625 476.714844 C 1002.230469 478 1002.984375 479.3125 1003.660156 480.652344 C 1004.339844 481.992188 1004.941406 483.351562 1005.46875 484.734375 C 1005.992188 486.113281 1006.4375 487.507812 1006.804688 488.917969 C 1007.171875 490.328125 1007.457031 491.742188 1007.664062 493.164062 C 1007.871094 494.589844 1007.992188 496.011719 1008.035156 497.4375 C 1008.078125 498.859375 1008.035156 500.277344 1007.914062 501.6875 C 1007.792969 503.101562 1007.589844 504.496094 1007.304688 505.882812 C 1007.019531 507.265625 1006.652344 508.632812 1006.207031 509.976562 C 1005.761719 511.320312 1005.238281 512.636719 1004.636719 513.929688 C 1004.039062 515.21875 1003.359375 516.480469 1002.609375 517.707031 C 1001.859375 518.933594 1001.035156 520.121094 1000.140625 521.269531 C 999.25 522.417969 998.285156 523.523438 997.257812 524.582031 C 996.230469 525.644531 995.140625 526.65625 993.988281 527.617188 C 992.835938 528.578125 991.625 529.488281 990.359375 530.34375 C 989.09375 531.199219 987.777344 531.996094 986.410156 532.734375 C 985.046875 533.472656 983.632812 534.148438 982.179688 534.765625 C 980.726562 535.378906 979.234375 535.929688 977.707031 536.417969 C 976.175781 536.90625 974.621094 537.324219 973.03125 537.679688 C 971.445312 538.03125 969.835938 538.316406 968.203125 538.53125 C 966.570312 538.746094 964.925781 538.894531 963.265625 538.96875 C 961.609375 539.046875 959.941406 539.054688 958.269531 538.992188 C 956.597656 538.929688 954.929688 538.796875 953.261719 538.59375 C 951.59375 538.390625 949.9375 538.121094 948.289062 537.78125 C 946.640625 537.441406 945.011719 537.035156 943.398438 536.558594 C 941.789062 536.085938 940.203125 535.546875 938.640625 534.945312 C 937.082031 534.339844 935.554688 533.675781 934.058594 532.949219 C 932.566406 532.222656 931.113281 531.4375 929.699219 530.59375 C 928.285156 529.75 926.917969 528.851562 925.601562 527.902344 C 924.28125 526.949219 923.015625 525.945312 921.804688 524.894531 C 920.59375 523.84375 919.441406 522.746094 918.347656 521.605469 C 917.257812 520.464844 916.226562 519.285156 915.265625 518.066406 C 914.300781 516.847656 913.40625 515.59375 912.582031 514.308594 C 911.757812 513.023438 911.003906 511.710938 910.328125 510.371094 C 909.648438 509.03125 909.046875 507.671875 908.523438 506.289062 C 907.996094 504.910156 907.550781 503.515625 907.183594 502.105469 C 906.816406 500.695312 906.53125 499.28125 906.324219 497.859375 C 906.117188 496.433594 905.996094 495.011719 905.953125 493.585938 C 905.910156 492.164062 905.953125 490.746094 906.074219 489.335938 C 906.195312 487.921875 906.398438 486.527344 906.683594 485.140625 C 906.96875 483.757812 907.335938 482.390625 907.78125 481.046875 C 908.226562 479.703125 908.75 478.386719 909.351562 477.09375 C 909.953125 475.804688 910.628906 474.542969 911.378906 473.316406 C 912.128906 472.089844 912.953125 470.902344 913.847656 469.753906 C 914.742188 468.605469 915.703125 467.5 916.730469 466.441406 C 917.757812 465.378906 918.847656 464.367188 920 463.40625 C 921.152344 462.445312 922.363281 461.535156 923.628906 460.679688 C 924.894531 459.824219 926.210938 459.027344 927.578125 458.289062 C 928.941406 457.550781 930.355469 456.875 931.808594 456.257812 C 933.261719 455.644531 934.753906 455.09375 936.28125 454.605469 C 937.8125 454.117188 939.371094 453.699219 940.957031 453.347656 C 942.542969 452.992188 944.152344 452.707031 945.785156 452.492188 C 947.417969 452.277344 949.0625 452.128906 950.722656 452.054688 C 952.382812 451.976562 954.046875 451.96875 955.71875 452.03125 C 957.390625 452.09375 959.058594 452.226562 960.726562 452.429688 C 962.394531 452.632812 964.050781 452.902344 965.699219 453.242188 Z M 965.699219 453.242188 " fill-opacity="1" fill-rule="nonzero"/><path fill="#000000" d="M 933.777344 548.089844 L 961.710938 544.699219 L 933.34375 575.050781 Z M 933.777344 548.089844 " fill-opacity="1" fill-rule="nonzero"/><path fill="#f8b498" d="M 974.414062 524.632812 C 961.691406 558.023438 933.863281 555.15625 933.863281 555.15625 C 910.21875 554.796875 898.675781 539.597656 896.464844 521.0625 C 894.765625 506.808594 904.257812 485.691406 909.355469 473.644531 C 911.078125 469.578125 913.996094 466.082031 917.882812 463.964844 C 951.175781 445.835938 994.683594 471.4375 974.414062 524.632812 Z M 974.414062 524.632812 " fill-opacity="1" fill-rule="nonzero"/><path fill="#000000" d="M 913.1875 518.832031 L 910.011719 517.535156 C 908.960938 517.003906 908.511719 515.746094 909.042969 514.570312 L 912.316406 509.292969 C 912.550781 508.914062 913.046875 508.800781 913.421875 509.03125 C 913.800781 509.265625 913.917969 509.761719 913.683594 510.140625 L 910.464844 515.320312 C 910.332031 515.613281 910.453125 515.953125 910.679688 516.070312 L 913.796875 517.335938 C 914.210938 517.503906 914.40625 517.972656 914.238281 518.386719 C 914.113281 518.699219 913.8125 518.886719 913.492188 518.886719 C 913.386719 518.886719 913.285156 518.867188 913.1875 518.832031 Z M 913.1875 518.832031 " fill-opacity="1" fill-rule="nonzero"/><path fill="#000000" d="M 934.871094 506.898438 C 934.871094 507.332031 934.789062 507.746094 934.625 508.148438 C 934.457031 508.550781 934.222656 508.902344 933.914062 509.210938 C 933.609375 509.515625 933.253906 509.753906 932.855469 509.917969 C 932.453125 510.085938 932.035156 510.167969 931.601562 510.167969 C 931.167969 510.167969 930.75 510.085938 930.351562 509.917969 C 929.949219 509.753906 929.597656 509.515625 929.289062 509.210938 C 928.984375 508.902344 928.746094 508.550781 928.582031 508.148438 C 928.414062 507.746094 928.332031 507.332031 928.332031 506.898438 C 928.332031 506.464844 928.414062 506.046875 928.582031 505.644531 C 928.746094 505.246094 928.984375 504.890625 929.289062 504.582031 C 929.597656 504.277344 929.949219 504.039062 930.351562 503.875 C 930.75 503.707031 931.167969 503.625 931.601562 503.625 C 932.035156 503.625 932.453125 503.707031 932.855469 503.875 C 933.253906 504.039062 933.609375 504.277344 933.914062 504.582031 C 934.222656 504.890625 934.457031 505.246094 934.625 505.644531 C 934.789062 506.046875 934.871094 506.464844 934.871094 506.898438 Z M 934.871094 506.898438 " fill-opacity="1" fill-rule="nonzero"/><path fill="#000000" d="M 906.691406 498.484375 C 905.039062 498.207031 903.476562 499.320312 903.195312 500.972656 C 902.921875 502.628906 904.03125 504.191406 905.683594 504.46875 C 907.335938 504.746094 908.898438 503.632812 909.179688 501.980469 C 909.453125 500.328125 908.339844 498.765625 906.691406 498.484375 Z M 906.691406 498.484375 " fill-opacity="1" fill-rule="nonzero"/><path fill="#000000" d="M 908.558594 525.816406 C 908.183594 525.570312 908.082031 525.074219 908.324219 524.703125 C 908.566406 524.332031 909.066406 524.234375 909.4375 524.472656 C 909.523438 524.527344 918.214844 530.101562 926.90625 525.042969 C 927.292969 524.824219 927.78125 524.953125 928.007812 525.335938 C 928.226562 525.71875 928.097656 526.210938 927.714844 526.433594 C 924.679688 528.199219 921.683594 528.808594 918.988281 528.808594 C 913.195312 528.804688 908.820312 525.988281 908.558594 525.816406 Z M 908.558594 525.816406 " fill-opacity="1" fill-rule="nonzero"/><path fill="#000000" d="M 907.683594 481.148438 C 903.398438 481.191406 900.707031 483.320312 899.371094 484.765625 C 898.710938 485.476562 898.554688 486.511719 898.945312 487.402344 C 899.429688 488.5 900.632812 489.097656 901.804688 488.808594 C 903.859375 488.300781 906.089844 488.363281 909.613281 488.375 C 914.25 488.394531 913.65625 484.566406 913.65625 484.566406 C 913.65625 484.566406 913.191406 481.09375 907.683594 481.148438 Z M 907.683594 481.148438 " fill-opacity="1" fill-rule="nonzero"/><path fill="#000000" d="M 937.910156 486.242188 C 943.171875 487.792969 948.023438 492.59375 949.1875 494.429688 C 949.761719 495.335938 949.613281 496.375 948.839844 497.078125 C 947.882812 497.949219 946.203125 498.089844 944.859375 497.40625 C 942.496094 496.199219 937.492188 493.644531 933.152344 492.417969 C 927.441406 490.800781 929.433594 487.378906 929.433594 487.378906 C 929.433594 487.378906 931.152344 484.253906 937.910156 486.242188 Z M 937.910156 486.242188 " fill-opacity="1" fill-rule="nonzero"/><path fill="#000000" d="M 989.921875 491.46875 C 920.09375 483.679688 930.210938 455.898438 930.210938 455.898438 C 1000.691406 452.082031 989.921875 491.46875 989.921875 491.46875 Z M 989.921875 491.46875 " fill-opacity="1" fill-rule="nonzero"/><path fill="#000000" d="M 1003.667969 502.089844 L 966.308594 524.367188 L 969.441406 481.996094 Z M 1003.667969 502.089844 " fill-opacity="1" fill-rule="nonzero"/><path fill="#f8b498" d="M 984.695312 514.078125 C 977.238281 510.027344 967.90625 512.792969 963.859375 520.253906 C 959.808594 527.714844 962.574219 537.050781 970.03125 541.097656 C 977.488281 545.148438 986.820312 542.386719 990.867188 534.925781 C 994.917969 527.464844 992.15625 518.128906 984.695312 514.078125 Z M 984.695312 514.078125 " fill-opacity="1" fill-rule="nonzero"/><path fill="#f8b498" d="M 971.191406 529.933594 C 975.558594 519.085938 985.058594 524.589844 985.058594 524.589844 " fill-opacity="1" fill-rule="nonzero"/><path fill="#f8b498" d="M 939.03125 610.300781 C 909.582031 610.300781 920.792969 590.867188 920.792969 590.867188 L 931.226562 589.203125 L 981.835938 589.691406 C 981.152344 592.773438 968.484375 610.300781 939.03125 610.300781 Z M 939.03125 610.300781 " fill-opacity="1" fill-rule="nonzero"/><path fill="#f8b498" d="M 960.367188 722.558594 L 922.410156 727.796875 L 923.097656 746.769531 L 961.191406 754.609375 C 961.191406 754.605469 960.527344 729.09375 960.367188 722.558594 Z M 960.367188 722.558594 " fill-opacity="1" fill-rule="nonzero"/><path fill="#000000" d="M 897.980469 689.589844 C 897.925781 689.433594 892.421875 673.828125 895.480469 656.40625 C 898.507812 639.132812 901.070312 631.351562 901.09375 631.277344 C 901.238281 630.855469 901.691406 630.625 902.109375 630.769531 C 902.53125 630.910156 902.761719 631.363281 902.621094 631.785156 C 902.59375 631.863281 900.066406 639.550781 897.0625 656.683594 C 894.082031 673.675781 899.441406 688.894531 899.496094 689.042969 C 899.644531 689.464844 899.425781 689.925781 899.011719 690.074219 C 898.921875 690.105469 898.828125 690.121094 898.738281 690.121094 C 898.40625 690.121094 898.097656 689.917969 897.980469 689.589844 Z M 897.980469 689.589844 " fill-opacity="1" fill-rule="nonzero"/><path fill="#000000" d="M 912.667969 685.378906 L 915.710938 679.382812 L 922.277344 682.574219 L 919.367188 688.585938 Z M 912.667969 685.378906 " fill-opacity="1" fill-rule="nonzero"/><path fill="#000000" d="M 880.832031 759.023438 L 879.835938 762.769531 C 879.621094 763.574219 880.210938 763.816406 880.691406 763.121094 L 882.933594 759.867188 C 882.585938 758.945312 881.769531 758.570312 880.832031 759.023438 Z M 880.832031 759.023438 " fill-opacity="1" fill-rule="nonzero"/><path fill="#007785" d="M 912.929688 684.8125 L 916.289062 686.429688 L 919.636719 688.019531 L 891.375 748.242188 L 891.222656 748.5625 L 891.167969 748.53125 L 882.722656 760.296875 C 882.355469 759.433594 881.539062 759.074219 880.632812 759.441406 L 884.011719 745.59375 L 883.917969 745.550781 L 884.121094 745.121094 Z M 912.929688 684.8125 " fill-opacity="1" fill-rule="nonzero"/><path fill="#f8b498" d="M 915.4375 679.96875 L 916.203125 678.445312 C 917.269531 676.335938 919.582031 675.347656 921.367188 676.242188 C 923.097656 677.105469 923.710938 679.421875 922.757812 681.503906 L 922.007812 683.136719 Z M 915.4375 679.96875 " fill-opacity="1" fill-rule="nonzero"/><path fill="#f8b498" d="M 864.019531 757.085938 C 865.574219 757.671875 867.296875 757.359375 868.519531 756.265625 L 879.25 746.648438 C 884.214844 742.203125 892.082031 739.101562 898.433594 742.332031 C 900.402344 743.332031 901.996094 744.984375 903.769531 746.269531 C 908.28125 749.539062 913.726562 749.207031 918.925781 748.015625 C 922.589844 747.171875 926.101562 745.660156 929.257812 743.613281 C 930.210938 742.996094 931.140625 742.324219 932.015625 741.59375 C 932.152344 741.480469 932.941406 740.964844 932.949219 740.765625 C 932.949219 740.761719 933.527344 727.171875 933.527344 727.171875 L 893.769531 726.578125 C 886.375 726.464844 879.363281 729.617188 874.539062 735.226562 L 862.085938 749.691406 C 860.011719 752.101562 861.019531 755.945312 864.019531 757.085938 Z M 864.019531 757.085938 " fill-opacity="1" fill-rule="nonzero"/><path fill="#000000" d="M 960.714844 722.496094 C 960.632812 722.058594 960.921875 721.636719 961.359375 721.5625 L 1032.023438 708.664062 L 1010.503906 663.066406 C 1010.3125 662.664062 1010.484375 662.183594 1010.886719 661.996094 C 1011.292969 661.808594 1011.769531 661.976562 1011.957031 662.378906 L 1033.925781 708.925781 C 1034.035156 709.152344 1034.027344 709.414062 1033.914062 709.636719 C 1033.800781 709.859375 1033.589844 710.011719 1033.34375 710.058594 L 961.648438 723.144531 C 961.601562 723.152344 961.554688 723.160156 961.503906 723.160156 C 961.121094 723.15625 960.78125 722.882812 960.714844 722.496094 Z M 960.714844 722.496094 " fill-opacity="1" fill-rule="nonzero"/><path fill="#007785" d="M 727.792969 620.882812 L 904.660156 620.882812 L 946.316406 750.757812 L 769.644531 750.757812 Z M 727.792969 620.882812 " fill-opacity="1" fill-rule="nonzero"/><path fill="#007785" d="M 769.644531 747.617188 L 1003.667969 747.617188 L 1003.667969 764.191406 L 769.644531 764.191406 Z M 769.644531 747.617188 " fill-opacity="1" fill-rule="nonzero"/><path fill="#ffffff" d="M 840.050781 700.996094 C 840.050781 701.753906 839.976562 702.507812 839.828125 703.253906 C 839.679688 703.996094 839.460938 704.722656 839.167969 705.421875 C 838.878906 706.125 838.523438 706.792969 838.101562 707.425781 C 837.679688 708.054688 837.199219 708.640625 836.660156 709.179688 C 836.125 709.714844 835.539062 710.195312 834.910156 710.617188 C 834.277344 711.039062 833.609375 711.398438 832.910156 711.6875 C 832.207031 711.976562 831.484375 712.199219 830.738281 712.347656 C 829.992188 712.496094 829.242188 712.566406 828.480469 712.566406 C 827.722656 712.566406 826.96875 712.496094 826.222656 712.347656 C 825.480469 712.199219 824.757812 711.976562 824.054688 711.6875 C 823.351562 711.394531 822.6875 711.039062 822.054688 710.617188 C 821.421875 710.195312 820.839844 709.714844 820.300781 709.179688 C 819.765625 708.640625 819.285156 708.054688 818.863281 707.425781 C 818.441406 706.792969 818.082031 706.125 817.792969 705.421875 C 817.503906 704.722656 817.28125 703.996094 817.132812 703.253906 C 816.988281 702.507812 816.914062 701.753906 816.914062 700.996094 C 816.914062 700.234375 816.988281 699.480469 817.132812 698.738281 C 817.28125 697.992188 817.503906 697.269531 817.792969 696.566406 C 818.082031 695.863281 818.441406 695.195312 818.863281 694.566406 C 819.285156 693.933594 819.765625 693.347656 820.300781 692.8125 C 820.839844 692.273438 821.421875 691.792969 822.054688 691.371094 C 822.6875 690.949219 823.351562 690.59375 824.054688 690.300781 C 824.757812 690.011719 825.480469 689.792969 826.222656 689.644531 C 826.96875 689.496094 827.722656 689.421875 828.480469 689.421875 C 829.242188 689.421875 829.992188 689.496094 830.738281 689.644531 C 831.484375 689.792969 832.207031 690.011719 832.910156 690.300781 C 833.609375 690.59375 834.277344 690.949219 834.910156 691.371094 C 835.539062 691.792969 836.125 692.273438 836.660156 692.8125 C 837.199219 693.347656 837.679688 693.933594 838.101562 694.566406 C 838.523438 695.195312 838.878906 695.863281 839.167969 696.566406 C 839.460938 697.269531 839.679688 697.992188 839.828125 698.738281 C 839.976562 699.480469 840.050781 700.234375 840.050781 700.996094 Z M 840.050781 700.996094 " fill-opacity="1" fill-rule="nonzero"/><path fill="#f8b498" d="M 488.605469 487.847656 C 488.605469 487.847656 400.535156 605.449219 400.535156 605.449219 C 380.976562 632.597656 337.734375 603.414062 355.820312 575.09375 L 407.550781 497.730469 Z M 488.605469 487.847656 " fill-opacity="1" fill-rule="nonzero"/><path fill="#ff3e4d" d="M 459.574219 563.519531 L 380.730469 511.601562 C 400.386719 481.179688 450.148438 396.894531 482.8125 407.644531 C 571.589844 442.515625 474.191406 539.496094 459.574219 563.519531 Z M 459.574219 563.519531 " fill-opacity="1" fill-rule="nonzero"/><path fill="#ff3e4d" d="M 632.738281 502.480469 L 671.523438 493.535156 C 669.25 410.398438 612.746094 406.703125 612.746094 406.703125 Z M 632.738281 502.480469 " fill-opacity="1" fill-rule="nonzero"/><path fill="#ff3e4d" d="M 453.902344 460.585938 L 476.339844 623.402344 L 615.761719 623.402344 C 628.359375 568.410156 673.804688 423.433594 620.136719 408.203125 C 572.71875 394.746094 537.773438 394.742188 474.617188 406.355469 C 454.863281 407.5625 459.695312 447.5 453.902344 460.585938 Z M 453.902344 460.585938 " fill-opacity="1" fill-rule="nonzero"/><path fill="#000000" d="M 471.515625 554.636719 L 456.480469 491.058594 C 456.394531 490.691406 456.621094 490.324219 456.980469 490.238281 C 457.355469 490.152344 457.714844 490.378906 457.800781 490.742188 L 472.835938 554.324219 C 472.921875 554.691406 472.695312 555.058594 472.332031 555.144531 C 472.28125 555.15625 472.230469 555.160156 472.175781 555.160156 C 471.871094 555.160156 471.59375 554.949219 471.515625 554.636719 Z M 471.515625 554.636719 " fill-opacity="1" fill-rule="nonzero"/><path fill="#000000" d="M 634.167969 533.402344 C 633.800781 533.347656 633.542969 533 633.59375 532.632812 L 642.644531 469.050781 C 642.703125 468.683594 643.019531 468.417969 643.417969 468.476562 C 643.785156 468.53125 644.042969 468.878906 643.992188 469.246094 L 634.9375 532.828125 C 634.890625 533.167969 634.601562 533.410156 634.265625 533.410156 C 634.234375 533.410156 634.203125 533.410156 634.167969 533.402344 Z M 634.167969 533.402344 " fill-opacity="1" fill-rule="nonzero"/><path fill="#f8b498" d="M 540.152344 560.867188 L 590.445312 562.585938 L 612.742188 515.148438 C 555.230469 492.175781 533.292969 531.042969 533.292969 531.042969 Z M 540.152344 560.867188 " fill-opacity="1" fill-rule="nonzero"/><path fill="#f8b498" d="M 542.628906 559.984375 L 387.804688 615.199219 L 378.773438 557.550781 L 536.800781 530.4375 Z M 542.628906 559.984375 " fill-opacity="1" fill-rule="nonzero"/><path fill="#000000" d="M 396 554.597656 C 395.9375 554.226562 396.1875 553.875 396.554688 553.8125 L 434.320312 547.332031 C 434.714844 547.273438 435.046875 547.519531 435.105469 547.886719 C 435.167969 548.257812 434.917969 548.605469 434.550781 548.671875 L 396.78125 555.152344 C 396.742188 555.160156 396.703125 555.160156 396.667969 555.160156 C 396.34375 555.160156 396.054688 554.929688 396 554.597656 Z M 396 554.597656 " fill-opacity="1" fill-rule="nonzero"/><path fill="#ffffff" d="M 758.289062 490.148438 C 711.589844 474.308594 597.414062 493.535156 597.414062 493.535156 L 533.785156 643.007812 L 544.257812 654.648438 Z M 758.289062 490.148438 " fill-opacity="1" fill-rule="nonzero"/><path fill="#000000" d="M 690.59375 620.515625 C 681 639.136719 654.652344 639.257812 654.652344 639.257812 L 727.632812 494.328125 L 758.285156 490.148438 Z M 690.59375 620.515625 " fill-opacity="1" fill-rule="nonzero"/><path fill="#007785" d="M 659.566406 638.574219 L 544.257812 654.652344 L 606.335938 504.828125 L 733.464844 493.535156 Z M 659.566406 638.574219 " fill-opacity="1" fill-rule="nonzero"/><path fill="#000000" d="M 659.566406 638.574219 L 544.257812 654.652344 L 606.335938 504.828125 L 733.464844 493.535156 Z M 659.566406 638.574219 " fill-opacity="0.4588" fill-rule="nonzero"/><path fill="#ffffff" d="M 700.246094 486.589844 L 728.671875 421.273438 L 743.328125 421.273438 L 758.285156 490.148438 Z M 700.246094 486.589844 " fill-opacity="1" fill-rule="nonzero"/><path fill="#f8b498" d="M 707.90625 586.90625 L 676.507812 563.945312 C 674.660156 562.59375 674.082031 560.089844 675.152344 558.0625 C 676.308594 555.875 678.984375 554.992188 681.214844 556.058594 L 704.5 567.171875 L 677.210938 547.292969 C 675.511719 546.058594 674.953125 543.777344 675.886719 541.898438 C 676.957031 539.742188 679.585938 538.882812 681.722656 539.988281 L 708.527344 553.886719 L 678.695312 530.523438 C 676.648438 528.917969 676.113281 526.039062 677.449219 523.804688 C 678.960938 521.285156 682.261719 520.527344 684.71875 522.144531 L 716.902344 543.335938 L 695.605469 522.867188 C 694.046875 521.367188 694.042969 518.871094 695.597656 517.367188 C 696.914062 516.097656 698.949219 515.9375 700.445312 516.992188 L 736.332031 542.25 C 736.332031 542.25 750.214844 553.855469 735.886719 575.722656 C 721.558594 597.589844 704.640625 593.453125 704.640625 593.453125 Z M 707.90625 586.90625 " fill-opacity="1" fill-rule="nonzero"/><path fill="#000000" d="M 615.414062 324.03125 C 647.933594 292.757812 612.832031 279.941406 612.832031 279.941406 Z M 615.414062 324.03125 " fill-opacity="1" fill-rule="nonzero"/><path fill="#f8b498" d="M 550.574219 331.246094 L 530.5625 409.914062 L 577.34375 411.4375 L 584.898438 368.1875 Z M 550.574219 331.246094 " fill-opacity="1" fill-rule="nonzero"/><path fill="#000000" d="M 584.101562 373.015625 L 547.820312 354.378906 C 546.75 383.699219 580.277344 394.5625 580.277344 394.5625 Z M 584.101562 373.015625 " fill-opacity="1" fill-rule="nonzero"/><path fill="#f8b498" d="M 538.550781 328.183594 C 537.089844 370.0625 561.417969 375.523438 561.417969 375.523438 C 582.675781 385.195312 599.003906 377.679688 608.703125 361.886719 C 616.324219 349.472656 618.109375 318.824219 618.523438 306.273438 C 618.652344 302.515625 615.285156 291.375 613.144531 288.289062 C 591.320312 256.800781 540.726562 265.761719 538.550781 328.183594 Z M 538.550781 328.183594 " fill-opacity="1" fill-rule="nonzero"/><path fill="#000000" d="M 606.214844 335.695312 C 607.878906 335.660156 609.265625 336.980469 609.300781 338.648438 C 609.339844 340.316406 608.015625 341.703125 606.347656 341.738281 C 604.683594 341.777344 603.296875 340.453125 603.261719 338.785156 C 603.222656 337.117188 604.546875 335.734375 606.214844 335.695312 Z M 606.214844 335.695312 " fill-opacity="1" fill-rule="nonzero"/><path fill="#000000" d="M 580.042969 330.0625 C 581.707031 330.027344 583.09375 331.347656 583.128906 333.015625 C 583.167969 334.683594 581.84375 336.070312 580.179688 336.105469 C 578.511719 336.144531 577.125 334.820312 577.089844 333.152344 C 577.050781 331.484375 578.371094 330.101562 580.042969 330.0625 Z M 580.042969 330.0625 " fill-opacity="1" fill-rule="nonzero"/><path fill="#000000" d="M 591.160156 350.550781 C 591.144531 350.066406 591.527344 349.664062 592.011719 349.652344 L 596.097656 349.535156 L 595.324219 339.753906 C 595.285156 339.273438 595.644531 338.851562 596.125 338.8125 C 596.601562 338.738281 597.027344 339.136719 597.066406 339.617188 L 597.914062 350.3125 C 597.929688 350.550781 597.847656 350.789062 597.691406 350.964844 C 597.53125 351.144531 597.304688 351.253906 597.066406 351.257812 L 592.054688 351.398438 C 592.046875 351.398438 592.039062 351.398438 592.03125 351.398438 C 591.554688 351.398438 591.167969 351.023438 591.160156 350.550781 Z M 591.160156 350.550781 " fill-opacity="1" fill-rule="nonzero"/><path fill="#000000" d="M 585.769531 312.113281 C 577.136719 310.152344 571.710938 312.667969 568.265625 314.410156 C 566.582031 315.257812 565.535156 316.964844 566.046875 318.777344 C 566.582031 320.671875 568.523438 321.738281 570.4375 321.277344 C 575.578125 320.039062 581.015625 320.101562 584.730469 320.386719 C 587.1875 320.570312 589.261719 318.601562 589.207031 316.132812 C 589.160156 314.140625 587.703125 312.550781 585.769531 312.113281 Z M 585.769531 312.113281 " fill-opacity="1" fill-rule="nonzero"/><path fill="#000000" d="M 605.386719 316.554688 C 611.1875 317.339844 613.796875 321.347656 615.417969 324.035156 C 616.207031 325.34375 616.378906 327.265625 615.566406 328.8125 C 614.71875 330.429688 613.242188 330.84375 612.203125 329.828125 C 609.417969 327.097656 606.082031 325.503906 603.742188 324.640625 C 602.191406 324.066406 601.472656 321.585938 602.183594 319.28125 C 602.757812 317.433594 604.085938 316.378906 605.386719 316.554688 Z M 605.386719 316.554688 " fill-opacity="1" fill-rule="nonzero"/><path fill="#000000" d="M 527.875 300.027344 C 529.9375 288.863281 536.390625 278.832031 547.210938 272.628906 C 561.074219 264.683594 579.085938 262.800781 595.191406 264.707031 C 608.667969 266.300781 620.066406 272.984375 623.421875 285.183594 C 628.425781 303.371094 612.496094 309.085938 604.476562 308.667969 C 600.457031 308.457031 596.648438 307.15625 593.1875 305.332031 C 580.722656 298.757812 562.507812 295.792969 562.507812 295.792969 C 559.949219 324.414062 538.308594 338.042969 538.308594 338.042969 C 538.308594 338.042969 525.386719 313.476562 527.875 300.027344 Z M 527.875 300.027344 " fill-opacity="1" fill-rule="nonzero"/><path fill="#f8b498" d="M 536.511719 311.949219 C 544.644531 311.460938 551.632812 317.664062 552.125 325.800781 C 552.613281 333.9375 546.414062 340.929688 538.277344 341.417969 C 530.144531 341.90625 523.15625 335.707031 522.667969 327.570312 C 522.179688 319.429688 528.375 312.4375 536.511719 311.949219 Z M 536.511719 311.949219 " fill-opacity="1" fill-rule="nonzero"/><path fill="#000000" d="M 542.328125 332.683594 C 542.320312 329.148438 541.324219 326.410156 539.378906 324.546875 C 536.371094 321.667969 531.980469 321.816406 531.960938 321.816406 C 531.539062 321.84375 531.070312 321.464844 531.050781 320.980469 C 531.027344 320.5 531.402344 320.089844 531.882812 320.070312 C 532.085938 320.050781 537.019531 319.882812 540.574219 323.273438 C 542.886719 325.476562 544.0625 328.640625 544.078125 332.683594 C 544.078125 333.167969 543.683594 333.558594 543.199219 333.5625 C 542.722656 333.558594 542.332031 333.167969 542.328125 332.683594 Z M 542.328125 332.683594 " fill-opacity="1" fill-rule="nonzero"/><path fill="#f8b498" d="M 600.839844 406.457031 C 600.839844 406.457031 588.878906 434.710938 557.730469 433.308594 C 526.578125 431.90625 514.578125 400.167969 514.578125 400.167969 C 562.628906 392.28125 600.839844 406.457031 600.839844 406.457031 Z M 600.839844 406.457031 " fill-opacity="1" fill-rule="nonzero"/><path fill="#000000" d="M 576.332031 357.863281 C 576.085938 357.445312 576.226562 356.910156 576.644531 356.664062 C 577.0625 356.421875 577.59375 356.558594 577.835938 356.976562 C 582.371094 364.714844 594.1875 361.691406 594.304688 361.664062 C 594.75 361.535156 595.25 361.816406 595.375 362.28125 C 595.5 362.75 595.222656 363.230469 594.757812 363.351562 C 594.523438 363.414062 592.050781 364.050781 588.886719 364.050781 C 584.699219 364.050781 579.296875 362.933594 576.332031 357.863281 Z M 576.332031 357.863281 " fill-opacity="1" fill-rule="nonzero"/><path fill="#ffffff" d="M 533.78125 397.253906 L 558.917969 423.933594 L 579.453125 399.378906 L 603.546875 402.773438 L 589.210938 457.523438 L 559.175781 436.203125 L 527.554688 451.855469 L 509.917969 400.742188 Z M 533.78125 397.253906 " fill-opacity="1" fill-rule="nonzero"/><path fill="#000000" d="M 559.175781 511.324219 C 558.792969 511.324219 558.484375 511.015625 558.484375 510.632812 L 558.484375 437.753906 C 558.484375 437.375 558.792969 437.0625 559.175781 437.0625 C 559.558594 437.0625 559.867188 437.375 559.867188 437.753906 L 559.867188 510.632812 C 559.867188 511.015625 559.558594 511.324219 559.175781 511.324219 Z M 559.175781 511.324219 " fill-opacity="1" fill-rule="nonzero"/><path fill="#ff3e4d" d="M 910.699219 527.8125 C 911.570312 529.074219 913.011719 529.613281 914.394531 529.917969 C 917.441406 530.585938 920.765625 530.367188 923.410156 528.5 C 924.007812 528.074219 924.613281 527.484375 924.707031 526.683594 C 924.800781 525.90625 924.367188 525.140625 923.78125 524.722656 C 923.203125 524.304688 922.5 524.171875 921.816406 524.097656 C 918.976562 523.785156 916.136719 524.308594 913.296875 524.136719 C 912.351562 524.074219 911.082031 523.425781 910.410156 524.304688 C 909.726562 525.203125 910.128906 526.992188 910.699219 527.8125 Z M 910.699219 527.8125 " fill-opacity="0.5569" fill-rule="nonzero"/></svg>