<svg xmlns="http://www.w3.org/2000/svg" xmlns:xlink="http://www.w3.org/1999/xlink" width="1920" zoomAndPan="magnify" viewBox="0 0 1440 809.999993" height="1080" preserveAspectRatio="xMidYMid meet" version="1.0"><defs><clipPath id="81222d9da5"><path d="M 461.535156 255.789062 L 766 255.789062 L 766 650 L 461.535156 650 Z M 461.535156 255.789062 " clip-rule="nonzero"/></clipPath><clipPath id="a4c86387e9"><path d="M 481 255.789062 L 766 255.789062 L 766 625 L 481 625 Z M 481 255.789062 " clip-rule="nonzero"/></clipPath><clipPath id="cfcffa7e7d"><path d="M 486 274 L 978.285156 274 L 978.285156 810 L 486 810 Z M 486 274 " clip-rule="nonzero"/></clipPath></defs><rect x="-144" width="1728" fill="#ffffff" y="-80.999999" height="971.999992" fill-opacity="1"/><rect x="-144" width="1728" fill="#efebd2" y="-80.999999" height="971.999992" fill-opacity="1"/><g clip-path="url(#81222d9da5)"><path fill="#f2ede2" d="M 747.742188 271.488281 L 765.621094 282.816406 L 765.621094 637.273438 C 765.621094 643.925781 760.226562 649.320312 753.578125 649.320312 L 473.621094 649.320312 C 466.972656 649.320312 461.582031 643.925781 461.582031 637.273438 L 461.582031 267.832031 C 461.582031 261.179688 466.972656 255.789062 473.621094 255.789062 L 738.601562 255.789062 Z M 747.742188 271.488281 " fill-opacity="1" fill-rule="nonzero"/></g><path fill="#bf8a8e" d="M 613.125 335.421875 L 551.332031 335.421875 L 551.332031 326.785156 L 613.125 326.785156 Z M 527.273438 327.371094 L 529.71875 308.601562 C 525.207031 302.738281 516.808594 301.644531 510.957031 306.160156 C 505.09375 310.671875 504.003906 319.074219 508.511719 324.925781 C 513.023438 330.792969 521.421875 331.886719 527.273438 327.371094 Z M 666.023438 385.910156 L 531.65625 385.910156 L 531.65625 514.238281 L 666.023438 514.238281 Z M 961.265625 627.507812 C 951.125 608.964844 939.25 581.910156 933.410156 547.613281 C 943.761719 535.792969 951.714844 517.515625 950.691406 510.171875 C 948.339844 493.304688 943.136719 474.242188 943.136719 474.242188 L 928.511719 467.792969 C 929.921875 447.578125 933.527344 431.59375 937.933594 419.816406 L 864.980469 403.128906 C 867.460938 398.273438 867.414062 395.617188 863.125 396.675781 C 846.691406 400.742188 771.574219 402.175781 771.574219 402.175781 L 754.589844 344.847656 L 744.097656 344.050781 L 730.320312 351.148438 L 725.609375 352.371094 L 736.273438 420.675781 C 738.175781 432.886719 746.988281 442.886719 758.863281 446.332031 L 807.113281 460.28125 C 807.125 460.304688 807.136719 460.328125 807.148438 460.351562 C 807.535156 460.445312 807.933594 460.539062 808.324219 460.632812 C 812.75 461.679688 817.179688 462.726562 821.621094 463.773438 C 820.515625 480.402344 818.273438 498.863281 814.148438 518.703125 C 805.832031 558.804688 792.546875 591.851562 780 617 C 781.925781 618.496094 787.339844 622.621094 795.386719 627.660156 L 824.886719 672.625 C 824.886719 672.625 931.414062 683.875 937.570312 643.972656 C 944.980469 640.09375 953.0625 634.796875 961.265625 627.507812 Z M 481.621094 580.511719 L 588.3125 580.511719 L 588.3125 571.871094 L 481.621094 571.871094 Z M 616.355469 587.089844 L 717.902344 587.089844 L 717.902344 532.984375 L 616.355469 532.984375 Z M 616.355469 587.089844 " fill-opacity="1" fill-rule="nonzero"/><g clip-path="url(#a4c86387e9)"><path fill="#fb8500" d="M 548.890625 450.785156 L 573.886719 450.785156 L 573.886719 507.996094 L 548.890625 507.996094 Z M 648.765625 371.246094 L 632.835938 380.894531 L 623.804688 371.246094 L 598.839844 371.246094 L 582.230469 380.894531 L 573.875 371.246094 L 548.925781 371.246094 L 540.984375 392.621094 L 548.925781 411.097656 C 548.925781 417.996094 554.515625 423.578125 561.402344 423.578125 C 568.296875 423.578125 573.875 417.984375 573.875 411.097656 L 598.839844 411.097656 C 598.839844 417.996094 604.433594 423.578125 611.316406 423.578125 C 618.199219 423.578125 623.792969 417.984375 623.792969 411.097656 L 648.753906 411.097656 C 648.753906 417.996094 654.347656 423.578125 661.230469 423.578125 C 668.128906 423.578125 673.707031 417.984375 673.707031 411.097656 L 673.707031 371.246094 Z M 738.601562 255.789062 L 738.601562 273.605469 C 738.601562 278.691406 742.722656 282.816406 747.8125 282.816406 L 765.621094 282.816406 Z M 481.621094 624.136719 L 566.300781 624.136719 L 566.300781 615.496094 L 481.621094 615.496094 Z M 481.621094 624.136719 " fill-opacity="1" fill-rule="nonzero"/></g><path fill="#ffb703" d="M 753.953125 332.191406 L 751.78125 335.328125 L 754.601562 344.847656 L 730.320312 351.148438 L 728.921875 339.195312 L 727.277344 337.691406 C 724.550781 335.199219 722.730469 331.875 722.105469 328.230469 L 720.792969 320.496094 L 719.710938 311.398438 C 719.195312 307.050781 722.414062 303.148438 726.769531 302.820312 L 739.210938 301.878906 C 741.5625 301.703125 743.734375 303.171875 744.4375 305.417969 L 746.941406 313.375 C 749.300781 313.398438 751.5 314.867188 752.308594 317.207031 L 757.855469 320.414062 C 758.792969 322.964844 755.46875 329.980469 753.953125 332.191406 Z M 850.015625 327.3125 C 846.878906 330.449219 844.152344 333.988281 841.898438 337.84375 C 837.5625 345.246094 835.011719 353.816406 834.835938 362.96875 L 846.679688 362.96875 C 846.679688 369.515625 841.378906 374.828125 834.824219 374.828125 L 834.824219 376.921875 C 834.824219 385.59375 841.851562 392.621094 850.519531 392.621094 L 858.179688 392.621094 L 893.539062 366.039062 C 893.539062 350.605469 870.457031 312.609375 885.773438 312.140625 C 871.828125 312.363281 859.199219 318.121094 850.015625 327.3125 Z M 536.4375 423.578125 C 543.332031 423.578125 548.914062 417.984375 548.914062 411.097656 L 548.914062 371.246094 L 523.960938 371.246094 L 523.960938 411.097656 C 523.960938 417.984375 529.554688 423.578125 536.4375 423.578125 Z M 586.363281 423.578125 C 593.261719 423.578125 598.839844 417.984375 598.839844 411.097656 L 598.839844 371.246094 L 573.875 371.246094 L 573.875 411.097656 C 573.875 417.984375 579.46875 423.578125 586.363281 423.578125 Z M 623.804688 411.097656 C 623.804688 417.996094 629.394531 423.578125 636.28125 423.578125 C 643.175781 423.578125 648.753906 417.984375 648.753906 411.097656 L 648.753906 371.246094 L 623.792969 371.246094 L 623.792969 411.097656 Z M 589.042969 482.457031 L 657.589844 482.457031 L 657.589844 445.050781 L 589.042969 445.050781 Z M 481.621094 558.699219 L 588.3125 558.699219 L 588.3125 550.058594 L 481.621094 550.058594 Z M 646.664062 304.972656 L 551.332031 304.972656 L 551.332031 313.609375 L 646.664062 313.609375 Z M 481.621094 602.324219 L 566.300781 602.324219 L 566.300781 593.683594 L 481.621094 593.683594 Z M 481.621094 602.324219 " fill-opacity="1" fill-rule="nonzero"/><g clip-path="url(#cfcffa7e7d)"><path fill="#023047" d="M 543.460938 514.238281 L 579.292969 514.238281 L 579.292969 445.050781 L 543.460938 445.050781 Z M 552.425781 454.511719 L 570.339844 454.511719 L 570.339844 504.28125 L 552.425781 504.28125 Z M 710.828125 307.898438 L 707.75 304.089844 L 712.261719 302.351562 L 721.800781 305.207031 C 720.402344 306.664062 719.59375 308.660156 719.6875 310.8125 Z M 620.398438 445.050781 L 621.570312 445.050781 L 621.570312 482.457031 L 620.398438 482.457031 Z M 529.140625 274.851562 L 493.910156 274.851562 L 490.363281 287.695312 L 486.332031 287.695312 L 486.332031 296.238281 L 490.292969 296.238281 L 496.789062 346.644531 L 524.726562 346.644531 L 532.75 296.238281 L 536.730469 296.238281 L 536.730469 287.695312 L 532.703125 287.695312 Z M 494.804688 276.023438 L 528.25 276.023438 L 531.480469 287.695312 L 491.574219 287.695312 Z M 523.726562 345.472656 L 497.824219 345.472656 L 491.480469 296.238281 L 531.5625 296.238281 Z M 535.542969 288.871094 L 535.542969 295.0625 L 487.507812 295.0625 L 487.507812 288.871094 L 533.03125 288.871094 C 533.03125 288.871094 535.542969 288.871094 535.542969 288.871094 Z M 749.195312 320.542969 L 746.71875 312.65625 L 777.519531 321.871094 L 775.605469 329.242188 Z M 925.011719 649.589844 C 928.875 648.144531 933.105469 646.3125 937.570312 643.972656 L 932.46875 810 L 863.324219 810 L 863.324219 713.667969 L 824.675781 810 L 748.386719 810 L 795.386719 627.660156 C 820.9375 643.667969 873.097656 669.007812 925.011719 649.589844 Z M 978.296875 445.214844 C 956.519531 471.621094 923.554688 488.464844 886.667969 488.464844 C 866.402344 488.464844 847.3125 483.375 830.621094 474.417969 C 847.910156 453.78125 858.332031 427.1875 858.332031 398.144531 C 858.332031 396.289062 858.296875 394.457031 858.203125 392.621094 L 858.203125 340.605469 C 858.203125 339.359375 858.296875 338.125 858.449219 336.925781 C 853.878906 340.910156 846.382812 344.261719 834.847656 341.273438 C 834.847656 341.273438 843.175781 312.140625 885.796875 312.140625 C 886.089844 312.128906 886.386719 312.128906 886.667969 312.128906 C 889.285156 312.128906 920.746094 316.464844 920.746094 352.382812 C 920.746094 392.527344 947.8125 423.707031 978.296875 445.214844 Z M 728.261719 487.863281 L 738.023438 487.863281 L 738.023438 489.039062 L 700.5625 489.039062 L 700.5625 487.863281 L 727.078125 487.863281 L 716.421875 383.183594 L 700.175781 397.570312 L 682.011719 300.71875 L 672.875 303.019531 L 680.179688 286.589844 L 694.371094 297.613281 L 683.152344 300.433594 L 700.949219 395.324219 L 717.359375 380.800781 Z M 635.164062 553.890625 C 632.285156 553.890625 629.949219 556.78125 629.949219 560.320312 C 629.949219 563.855469 632.285156 566.746094 635.164062 566.746094 C 638.042969 566.746094 640.378906 563.855469 640.378906 560.320312 C 640.378906 556.78125 638.042969 553.890625 635.164062 553.890625 Z M 635.164062 565.585938 C 632.929688 565.585938 631.121094 563.222656 631.121094 560.332031 C 631.121094 557.441406 632.929688 555.078125 635.164062 555.078125 C 637.394531 555.078125 639.203125 557.441406 639.203125 560.332031 C 639.203125 563.222656 637.394531 565.585938 635.164062 565.585938 Z M 625.058594 445.050781 L 626.234375 445.050781 L 626.234375 482.457031 L 625.058594 482.457031 Z M 699.09375 553.890625 C 696.214844 553.890625 693.878906 556.78125 693.878906 560.320312 C 693.878906 563.855469 696.214844 566.746094 699.09375 566.746094 C 701.972656 566.746094 704.308594 563.855469 704.308594 560.320312 C 704.308594 556.78125 701.972656 553.890625 699.09375 553.890625 Z M 699.09375 565.585938 C 696.863281 565.585938 695.050781 563.222656 695.050781 560.332031 C 695.050781 557.441406 696.863281 555.078125 699.09375 555.078125 C 701.324219 555.078125 703.136719 557.441406 703.136719 560.332031 C 703.136719 563.222656 701.324219 565.585938 699.09375 565.585938 Z M 667.128906 544.277344 C 658.433594 544.277344 651.363281 551.351562 651.363281 560.050781 C 651.363281 568.746094 658.433594 575.820312 667.128906 575.820312 C 675.820312 575.820312 682.894531 568.746094 682.894531 560.050781 C 682.894531 551.351562 675.820312 544.277344 667.128906 544.277344 Z M 667.128906 574.632812 C 659.082031 574.632812 652.539062 568.085938 652.539062 560.035156 C 652.539062 551.988281 659.082031 545.441406 667.128906 545.441406 C 675.175781 545.441406 681.71875 551.988281 681.71875 560.035156 C 681.71875 568.085938 675.175781 574.632812 667.128906 574.632812 Z M 667.128906 574.632812 " fill-opacity="1" fill-rule="nonzero"/></g></svg>